PathFileType	4	(X/Y/Z)	C:/Users/beibeiliu/ov580/test_trc/User3\sequence.14_training_dense_left.trc
DataRate	CameraRate	NumFrames	NumMarkers	Units	OrigDataRate	OrigDataStartFrame	OrigNumFrames
120	120	13	19	mm	120	57	84
Frame#	Time	ThumbCMC			ThumbMCP			ThumbIP			ThumbTip			IndexMCP			IndexPIP			IndexTip			MiddleMCP			MiddlePIP			MiddleTip			RingMCP			RingPIP			RingTip			PinkyMCP			PinkyPIP			PinkyTip			BackHand1			BackHand2			BackHand3	
		X0	Y0	Z0	X1	Y1	Z1	X2	Y2	Z2	X3	Y3	Z3	X4	Y4	Z4	X5	Y5	Z5	X6	Y6	Z6	X7	Y7	Z7	X8	Y8	Z8	X9	Y9	Z9	X10	Y10	Z10	X11	Y11	Z11	X12	Y12	Z12	X13	Y13	Z13	X14	Y14	Z14	X15	Y15	Z15	X16	Y16	Z16	X17	Y17	Z17	X18	Y18	Z18	
56	0.466667	-65.9501	17.1111	26.2676	-57.7648	7.19947	-8.07434	-68.8821	-4.41785	-36.1228	-91.9378	-19.3503	-41.9891	-103.837	53.628	-26.9879	-103.405	59.8964	-53.5558	-103.879	62.8244	-77.1225	-116.306	27.2467	-38.8598	-98.7333	1.4013	-50.8741	-88.671	-9.69616	-15.0229	-126.793	11.9843	-26.9928	-109.699	-14.6345	-39.0135	-93.3598	-16.9998	-10.9277	-143.937	6.36919	-7.81218	-151.484	8.86699	-31.446	-152.204	0.551412	-60.2307	-133.581	19.9885	26.7886	-125.029	9.96163	58.9235	-98.6481	35.1723	36.8997	
57	0.475	-81.8422	24.1359	27.4737	-74.357	19.5531	-7.59515	-84.2218	2.99067	-35.6636	-96.7977	-16.7372	-39.9068	-135.72	42.8117	-28.9813	-142.157	45.3125	-54.4714	-144.095	47.7714	-79.1033	-137.923	12.8823	-37.4813	-115.034	-0.755688	-53.9343	-93.1624	-6.72213	-17.3231	-139.223	-3.44682	-30.9043	-114.919	-17.9616	-42.4304	-97.7094	-18.2361	-16.865	-147.094	-19.5611	-13.91	-146.522	-20.4753	-18.1909	-156.848	-22.5959	-39.5328	-142.22	-0.419037	29.6765	-129.543	-0.451023	57.1626	-119.809	27.7486	39.3946	
58	0.483333	-103.867	26.9722	24.5758	-100.222	19.3461	-10.7735	-102.898	3.58457	-36.5134	-110.36	-24.0586	-42.5495	-166.763	15.674	-20.6629	-177.051	15.7697	-45.5491	-186.228	14.5166	-73.5955	-158.596	-12.9156	-28.6145	-130.346	-16.3696	-49.8648	-105.988	-10.2159	-19.8873	-153.801	-29.2345	-20.7591	-127.32	-34.0073	-39.3564	-106.844	-24.4124	-19.0585	-158.248	-44.9082	3.14772	-170.129	-49.4103	-19.1668	-165.646	-55.3115	-48.2186	-150.862	-18.6435	33.3746	-133.507	-19.1026	62.063	-140.931	11.3804	41.349	
59	0.491667	-126	21.26	24.7908	-126.132	13.2919	-11.6041	-129.319	-3.78845	-36.8289	-131.089	-31.5534	-40.1831	-195.448	-2.73221	-13.1612	-208.919	-2.90784	-36.5922	-217.714	-9.45249	-54.4736	-179.382	-32.0584	-22.7149	-158.663	-28.61	-46.4664	-127.736	-19.8857	-22.809	-168.78	-46.1901	-16.2698	-144.761	-41.9475	-36.0853	-121.323	-28.6953	-14.9268	-164.751	-60.6682	9.2515	-180.199	-70.9433	-14.1962	-183.065	-74.983	-34.5909	-157.539	-37.6118	44.8077	-140.713	-31.4751	66.4766	-157.037	1.86075	46.7213	
60	0.5	-139.272	17.2189	26.3832	-143.302	9.28478	-9.10712	-150.752	-9.98897	-38.0444	-151.522	-34.5971	-38.6109	-207.385	-8.98745	1.37914	-226.15	-11.5697	-20.1403	-242.025	-17.0381	-44.1157	-197.448	-32.3477	-13.8634	-179.336	-33.6068	-39.7519	-143.474	-17.9673	-20.9405	-183.901	-50.3938	-8.67433	-161.58	-48.7838	-31.2438	-138.458	-32.3356	-17.5452	-179.02	-63.6919	12.7951	-192.459	-74.9042	-4.60905	-204.141	-82.6652	-22.7064	-170.376	-39.9712	46.3982	-145.675	-32.7706	69.1273	-164.092	-7.95083	51.5845	
61	0.508333	-139.369	16.2267	24.5385	-144.082	9.15516	-11.4488	-153.217	-7.47316	-37.0555	-161.111	-36.326	-41.9399	-211.227	-2.025	4.08956	-231.509	-1.04296	-18.1083	-245.315	0.520618	-41.0492	-203.572	-25.6061	-13.2198	-183.021	-28.7473	-38.029	-149.789	-19.5224	-19.1978	-191.387	-46.4776	-5.42182	-171.535	-44.2108	-30.2608	-143.228	-34.5688	-13.2146	-191.662	-62.0673	13.9112	-205.905	-66.7549	-3.60675	-217.314	-70.6781	-21.5626	-176.562	-37.2552	47.484	-152.751	-32.695	67.0963	-166.007	1.42972	54.3523	
62	0.516667	-124.962	16.2984	22.1913	-131.464	7.53689	-15.8234	-139.533	-7.84291	-37.2339	-153.56	-34.6183	-40.9132	-199.891	14.2988	-7.72086	-214.41	17.5878	-29.0103	-226.084	14.3345	-56.3514	-193.681	-12.6733	-18.4915	-170.918	-18.8725	-43.8675	-140.845	-20.7334	-20.493	-186.875	-34.5391	-13.0288	-165.97	-37.3718	-34.2704	-137.255	-31.3846	-12.8317	-190.543	-48.5355	9.47595	-204.466	-53.992	-8.77434	-218.362	-58.9044	-27.8052	-171.994	-23.1045	47.1338	-151.067	-23.1509	64.7424	-157.405	7.5864	47.7831	
63	0.525	-106.812	16.4702	18.5388	-104.445	6.33592	-17.6554	-112.796	-12.4777	-39.9177	-126.688	-37.6174	-41.0054	-171.015	18.9268	-26.0305	-181.193	19.5539	-53.9431	-185.495	16.6743	-80.4009	-167.69	-11.3769	-33.7314	-143.831	-20.6434	-51.8445	-116.841	-17.4253	-21.56	-164.994	-28.6627	-20.9555	-138.524	-37.7214	-38.0184	-117.98	-32.7753	-12.6869	-172.347	-39.6708	0.219118	-184.143	-49.1608	-19.9947	-193.228	-51.3084	-43.0399	-160.558	-13.5512	34.8305	-145.781	-18.3164	62.2715	-145.302	16.2172	36.7312	
64	0.533333	-94.7332	19.244	16.1903	-78.0911	6.76487	-14.1634	-81.2401	-18.5923	-40.7121	-91.9035	-42.2106	-35.6337	-142.196	8.56886	-45.0449	-142.369	4.56453	-73.6526	-138.261	0.205324	-95.2701	-135.603	-17.1575	-45.1112	-104.789	-30.3714	-52.2277	-90.5257	-21.0531	-16.8203	-134.003	-38.2004	-30.9945	-104.427	-45.2384	-35.955	-92.3652	-29.7748	-7.48217	-146.405	-43.4878	-11.2075	-151.863	-55.5834	-31.7605	-153.536	-67.6123	-51.0931	-147.424	-14.1931	23.5704	-137.199	-10.5293	51.533	-131.472	17.8971	24.5708	
65	0.541667	-91.0007	24.847	13.6701	-67.3615	10.0465	-13.6979	-55.324	-10.9875	-26.8997	-59.9071	-39.7215	-26.7614	-118.145	-3.25638	-49.5228	-108.926	-13.9785	-77.9524	-98.327	-22.252	-101.257	-105.191	-28.5923	-47.5771	-72.4656	-35.2979	-45.3716	-67.5433	-20.8946	-12.0563	-100.51	-42.0776	-31.4706	-70.1873	-43.07	-25.9231	-70.6202	-26.016	1.8833	-116.798	-54.3494	-15.53	-112.002	-70.0987	-30.8567	-105.462	-76.5256	-52.7734	-133.101	-21.3468	17.3504	-135.438	-15.3947	42.6058	-130.245	11.2039	16.4122	
66	0.55	-95.6289	27.714	10.458	-64.2928	21.943	-9.57214	-43.9429	-0.92817	-21.3187	-36.6848	-28.7974	-18.4736	-102.066	-12.3912	-51.435	-86.7516	-19.8935	-76.0747	-69.5409	-25.8528	-96.093	-82.3443	-35.4761	-43.6516	-51.6276	-27.4156	-43.1279	-56.5963	-9.44534	-4.58187	-77.0497	-45.2226	-25.5169	-48.1926	-38.5299	-16.8614	-54.28	-17.0904	6.05734	-91.9307	-59.4931	-6.32509	-79.2342	-69.9176	-24.0094	-64.831	-82.7231	-38.7248	-123.676	-30.4784	14.081	-128.467	-22.7219	38.8385	-130.024	1.98864	9.98535	
67	0.558333	-99.7837	26.1097	9.29276	-65.9785	24.2543	-5.9595	-39.3387	6.30025	-17.8898	-31.5331	-21.3249	-10.9657	-92.6388	-19.6119	-49.5229	-76.2307	-21.5689	-72.5582	-57.9371	-24.3775	-91.4967	-72.2309	-35.8114	-38.1733	-41.4743	-23.6855	-34.2216	-49.4253	-6.64493	-1.34015	-67.165	-45.2675	-21.7035	-39.4702	-31.2099	-12.7121	-49.731	-11.478	9.72993	-76.3343	-62.4627	-5.85094	-61.0435	-71.6023	-20.0013	-44.1331	-77.4041	-36.1025	-117.03	-38.5682	14.2426	-124.433	-28.0404	37.0801	-127.256	-6.10249	8.0006	
68	0.566667	-97.1351	25.1211	14.2933	-63.2983	22.9158	-3.39517	-41.7688	5.45306	-13.8405	-27.8329	-21.1363	-12.6543	-91.3548	-19.3217	-50.4181	-73.4534	-24.5121	-74.3888	-55.3333	-29.1265	-87.8412	-73.4021	-37.9157	-38.9122	-42.5887	-29.5224	-36.2685	-45.7565	-8.38739	-3.3483	-71.3842	-46.885	-22.7352	-40.3119	-38.5128	-17.9718	-42.4997	-20.9635	8.81464	-78.9261	-65.143	-3.47236	-65.5839	-71.6638	-22.0238	-50.8165	-76.3128	-38.0529	-114.479	-39.7443	12.9616	-125.303	-32.1541	40.8365	-123.949	-8.10364	10.7497	
